<svg width="749" height="722" viewBox="0 0 749 722" fill="none" xmlns="http://www.w3.org/2000/svg">
<g clip-path="url(#clip0_158848_3195)">
<path d="M325.626 193.171C324.99 187.872 321.743 183.322 316.939 180.998C312.136 178.675 306.552 178.954 302.004 181.744L291.043 188.468C289.224 189.583 287.842 191.22 287.047 193.199C286.251 195.179 286.117 197.317 286.658 199.381C287.201 201.445 288.369 203.241 290.034 204.575C291.7 205.909 293.709 206.655 295.842 206.733L295.985 206.738C301.334 206.972 306.383 209.436 309.859 213.514C310.755 214.565 311.84 215.402 313.057 215.991C313.719 216.311 314.421 216.558 315.154 216.727C317.234 217.205 319.366 217.006 321.322 216.15C323.276 215.294 324.87 213.862 325.929 212.009C326.988 210.156 327.413 208.057 327.159 205.938L325.626 193.171Z" fill="#3C184E" fill-opacity="0.05"/>
<path d="M297.446 179.523C299.65 179.709 301.786 178.894 303.461 177.229C305.056 175.645 306.043 173.464 306.241 171.087C306.438 168.71 305.825 166.396 304.515 164.57C303.139 162.651 301.168 161.494 298.966 161.311C294.539 160.941 290.595 164.725 290.173 169.749C289.842 173.75 291.845 177.346 294.911 178.829C295.694 179.208 296.546 179.449 297.446 179.523Z" fill="#3C184E" fill-opacity="0.05"/>
<path d="M313.26 177.752C317.927 180.009 323.815 177.52 326.387 172.204C328.959 166.886 327.256 160.724 322.589 158.466C317.924 156.209 312.035 158.699 309.463 164.017C306.891 169.333 308.594 175.495 313.26 177.752Z" fill="#3C184E" fill-opacity="0.05"/>
<path d="M326.73 187.19L326.73 187.191C327.333 187.776 328.01 188.244 328.739 188.597C332.142 190.243 336.657 189.37 339.764 186.176C341.552 184.337 342.625 181.997 342.784 179.587C342.951 177.065 342.11 174.768 340.416 173.12C338.72 171.472 336.401 170.695 333.884 170.932C331.479 171.159 329.17 172.297 327.383 174.136C323.61 178.015 323.317 183.871 326.73 187.19Z" fill="#3C184E" fill-opacity="0.05"/>
<path d="M345.096 194.686L345.095 194.684C343.027 190.75 337.716 189.453 333.254 191.792C328.795 194.135 326.845 199.241 328.907 203.174C329.659 204.609 330.843 205.694 332.26 206.379C334.73 207.574 337.909 207.556 340.748 206.069C345.208 203.726 347.158 198.62 345.096 194.686Z" fill="#3C184E" fill-opacity="0.05"/>
</g>
<g clip-path="url(#clip1_158848_3195)">
<path d="M540.626 127.171C539.99 121.872 536.743 117.322 531.939 114.998C527.136 112.675 521.552 112.954 517.004 115.744L506.043 122.468C504.224 123.583 502.842 125.22 502.047 127.199C501.251 129.179 501.117 131.317 501.658 133.381C502.201 135.445 503.369 137.241 505.034 138.575C506.7 139.909 508.709 140.655 510.842 140.733L510.985 140.738C516.334 140.972 521.383 143.436 524.859 147.514C525.755 148.565 526.84 149.402 528.057 149.991C528.719 150.311 529.421 150.558 530.154 150.727C532.234 151.205 534.366 151.006 536.322 150.15C538.276 149.294 539.87 147.862 540.929 146.009C541.988 144.156 542.413 142.057 542.159 139.938L540.626 127.171Z" fill="#3C184E" fill-opacity="0.05"/>
<path d="M512.446 113.523C514.65 113.709 516.786 112.894 518.461 111.229C520.056 109.645 521.043 107.464 521.241 105.087C521.438 102.71 520.825 100.396 519.515 98.5695C518.139 96.6513 516.168 95.4937 513.966 95.3114C509.539 94.9409 505.595 98.725 505.173 103.749C504.842 107.75 506.845 111.346 509.911 112.829C510.694 113.208 511.546 113.449 512.446 113.523Z" fill="#3C184E" fill-opacity="0.05"/>
<path d="M528.26 111.752C532.927 114.009 538.815 111.52 541.387 106.204C543.959 100.886 542.256 94.7236 537.589 92.4663C532.924 90.2093 527.035 92.6991 524.463 98.0169C521.891 103.333 523.594 109.495 528.26 111.752Z" fill="#3C184E" fill-opacity="0.05"/>
<path d="M541.73 121.19L541.73 121.191C542.333 121.776 543.01 122.244 543.739 122.597C547.142 124.243 551.657 123.37 554.764 120.176C556.552 118.337 557.625 115.997 557.784 113.587C557.951 111.065 557.11 108.768 555.416 107.12C553.72 105.472 551.401 104.695 548.884 104.932C546.479 105.159 544.17 106.297 542.383 108.136C538.61 112.015 538.317 117.871 541.73 121.19Z" fill="#3C184E" fill-opacity="0.05"/>
<path d="M560.096 128.686L560.095 128.684C558.027 124.75 552.716 123.453 548.254 125.792C543.795 128.135 541.845 133.241 543.907 137.174C544.659 138.609 545.843 139.694 547.26 140.379C549.73 141.574 552.909 141.556 555.748 140.069C560.208 137.726 562.158 132.62 560.096 128.686Z" fill="#3C184E" fill-opacity="0.05"/>
</g>
<g clip-path="url(#clip2_158848_3195)">
<path d="M679.626 229.171C678.99 223.872 675.743 219.322 670.939 216.998C666.136 214.675 660.552 214.954 656.004 217.744L645.043 224.468C643.224 225.583 641.842 227.22 641.047 229.199C640.251 231.179 640.117 233.317 640.658 235.381C641.201 237.445 642.369 239.241 644.034 240.575C645.7 241.909 647.709 242.655 649.842 242.733L649.985 242.738C655.334 242.972 660.383 245.436 663.859 249.514C664.755 250.565 665.84 251.402 667.057 251.991C667.719 252.311 668.421 252.558 669.154 252.727C671.234 253.205 673.366 253.006 675.322 252.15C677.276 251.294 678.87 249.862 679.929 248.009C680.988 246.156 681.413 244.057 681.159 241.938L679.626 229.171Z" fill="#3C184E" fill-opacity="0.05"/>
<path d="M651.446 215.523C653.65 215.709 655.786 214.894 657.461 213.229C659.056 211.645 660.043 209.464 660.241 207.087C660.438 204.71 659.825 202.396 658.515 200.57C657.139 198.651 655.168 197.494 652.966 197.311C648.539 196.941 644.595 200.725 644.173 205.749C643.842 209.75 645.845 213.346 648.911 214.829C649.694 215.208 650.546 215.449 651.446 215.523Z" fill="#3C184E" fill-opacity="0.05"/>
<path d="M667.26 213.752C671.927 216.009 677.815 213.52 680.387 208.204C682.959 202.886 681.256 196.724 676.589 194.466C671.924 192.209 666.035 194.699 663.463 200.017C660.891 205.333 662.594 211.495 667.26 213.752Z" fill="#3C184E" fill-opacity="0.05"/>
<path d="M680.73 223.19L680.73 223.191C681.333 223.776 682.01 224.244 682.739 224.597C686.142 226.243 690.657 225.37 693.764 222.176C695.552 220.337 696.625 217.997 696.784 215.587C696.951 213.065 696.11 210.768 694.416 209.12C692.72 207.472 690.401 206.695 687.884 206.932C685.479 207.159 683.17 208.297 681.383 210.136C677.61 214.015 677.317 219.871 680.73 223.19Z" fill="#3C184E" fill-opacity="0.05"/>
<path d="M699.096 230.686L699.095 230.684C697.027 226.75 691.716 225.453 687.254 227.792C682.795 230.135 680.845 235.241 682.907 239.174C683.659 240.609 684.843 241.694 686.26 242.379C688.73 243.574 691.909 243.556 694.748 242.069C699.208 239.726 701.158 234.62 699.096 230.686Z" fill="#3C184E" fill-opacity="0.05"/>
</g>
<g clip-path="url(#clip3_158848_3195)">
<path d="M670.626 484.171C669.99 478.872 666.743 474.322 661.939 471.998C657.136 469.675 651.552 469.954 647.004 472.744L636.043 479.468C634.224 480.583 632.842 482.22 632.047 484.199C631.251 486.179 631.117 488.317 631.658 490.381C632.201 492.445 633.369 494.241 635.034 495.575C636.7 496.909 638.709 497.655 640.842 497.733L640.985 497.738C646.334 497.972 651.383 500.436 654.859 504.514C655.755 505.565 656.84 506.402 658.057 506.991C658.719 507.311 659.421 507.558 660.154 507.727C662.234 508.205 664.366 508.006 666.322 507.15C668.276 506.294 669.87 504.862 670.929 503.009C671.988 501.156 672.413 499.057 672.159 496.938L670.626 484.171Z" fill="#3C184E" fill-opacity="0.05"/>
<path d="M642.446 470.523C644.65 470.709 646.786 469.894 648.461 468.229C650.056 466.645 651.043 464.464 651.241 462.087C651.438 459.71 650.825 457.396 649.515 455.569C648.139 453.651 646.168 452.494 643.966 452.311C639.539 451.941 635.595 455.725 635.173 460.749C634.842 464.75 636.845 468.346 639.911 469.829C640.694 470.208 641.546 470.449 642.446 470.523Z" fill="#3C184E" fill-opacity="0.05"/>
<path d="M658.26 468.752C662.927 471.009 668.815 468.52 671.387 463.204C673.959 457.886 672.256 451.724 667.589 449.466C662.924 447.209 657.035 449.699 654.463 455.017C651.891 460.333 653.594 466.495 658.26 468.752Z" fill="#3C184E" fill-opacity="0.05"/>
<path d="M671.73 478.19L671.73 478.191C672.333 478.776 673.01 479.244 673.739 479.597C677.142 481.243 681.657 480.37 684.764 477.176C686.552 475.337 687.625 472.997 687.784 470.587C687.951 468.065 687.11 465.768 685.416 464.12C683.72 462.472 681.401 461.695 678.884 461.932C676.479 462.159 674.17 463.297 672.383 465.136C668.61 469.015 668.317 474.871 671.73 478.19Z" fill="#3C184E" fill-opacity="0.05"/>
<path d="M690.096 485.686L690.095 485.684C688.027 481.75 682.716 480.453 678.254 482.792C673.795 485.135 671.845 490.241 673.907 494.174C674.659 495.609 675.843 496.694 677.26 497.379C679.73 498.574 682.909 498.556 685.748 497.069C690.208 494.726 692.158 489.62 690.096 485.686Z" fill="#3C184E" fill-opacity="0.05"/>
</g>
<g clip-path="url(#clip4_158848_3195)">
<path d="M582.626 352.171C581.99 346.872 578.743 342.322 573.939 339.998C569.136 337.675 563.552 337.954 559.004 340.744L548.043 347.468C546.224 348.583 544.842 350.22 544.047 352.199C543.251 354.179 543.117 356.317 543.658 358.381C544.201 360.445 545.369 362.241 547.034 363.575C548.7 364.909 550.709 365.655 552.842 365.733L552.985 365.738C558.334 365.972 563.383 368.436 566.859 372.514C567.755 373.565 568.84 374.402 570.057 374.991C570.719 375.311 571.421 375.558 572.154 375.727C574.234 376.205 576.366 376.006 578.322 375.15C580.276 374.294 581.87 372.862 582.929 371.009C583.988 369.156 584.413 367.057 584.159 364.938L582.626 352.171Z" fill="#3C184E" fill-opacity="0.05"/>
<path d="M554.446 338.523C556.65 338.709 558.786 337.894 560.461 336.229C562.056 334.645 563.043 332.464 563.241 330.087C563.438 327.71 562.825 325.396 561.515 323.569C560.139 321.651 558.168 320.494 555.966 320.311C551.539 319.941 547.595 323.725 547.173 328.749C546.842 332.75 548.845 336.346 551.911 337.829C552.694 338.208 553.546 338.449 554.446 338.523Z" fill="#3C184E" fill-opacity="0.05"/>
<path d="M570.26 336.752C574.927 339.009 580.815 336.52 583.387 331.204C585.959 325.886 584.256 319.724 579.589 317.466C574.924 315.209 569.035 317.699 566.463 323.017C563.891 328.333 565.594 334.495 570.26 336.752Z" fill="#3C184E" fill-opacity="0.05"/>
<path d="M583.73 346.19L583.73 346.191C584.333 346.776 585.01 347.244 585.739 347.597C589.142 349.243 593.657 348.37 596.764 345.176C598.552 343.337 599.625 340.997 599.784 338.587C599.951 336.065 599.11 333.768 597.416 332.12C595.72 330.472 593.401 329.695 590.884 329.932C588.479 330.159 586.17 331.297 584.383 333.136C580.61 337.015 580.317 342.871 583.73 346.19Z" fill="#3C184E" fill-opacity="0.05"/>
<path d="M602.096 353.686L602.095 353.684C600.027 349.75 594.716 348.453 590.254 350.792C585.795 353.135 583.845 358.241 585.907 362.174C586.659 363.609 587.843 364.694 589.26 365.379C591.73 366.574 594.909 366.556 597.748 365.069C602.208 362.726 604.158 357.62 602.096 353.686Z" fill="#3C184E" fill-opacity="0.05"/>
</g>
<g clip-path="url(#clip5_158848_3195)">
<path d="M148.626 367.171C147.99 361.872 144.743 357.322 139.939 354.998C135.136 352.675 129.552 352.954 125.004 355.744L114.043 362.468C112.224 363.583 110.842 365.22 110.047 367.199C109.251 369.179 109.117 371.317 109.658 373.381C110.201 375.445 111.369 377.241 113.034 378.575C114.7 379.909 116.709 380.655 118.842 380.733L118.985 380.738C124.334 380.972 129.383 383.436 132.859 387.514C133.755 388.565 134.84 389.402 136.057 389.991C136.719 390.311 137.421 390.558 138.154 390.727C140.234 391.205 142.366 391.006 144.322 390.15C146.276 389.294 147.87 387.862 148.929 386.009C149.988 384.156 150.413 382.057 150.159 379.938L148.626 367.171Z" fill="#3C184E" fill-opacity="0.05"/>
<path d="M120.446 353.523C122.65 353.709 124.786 352.894 126.461 351.229C128.056 349.645 129.043 347.464 129.241 345.087C129.438 342.71 128.825 340.396 127.515 338.569C126.139 336.651 124.168 335.494 121.966 335.311C117.539 334.941 113.595 338.725 113.173 343.749C112.842 347.75 114.845 351.346 117.911 352.829C118.694 353.208 119.546 353.449 120.446 353.523Z" fill="#3C184E" fill-opacity="0.05"/>
<path d="M136.26 351.752C140.927 354.009 146.815 351.52 149.387 346.204C151.959 340.886 150.256 334.724 145.589 332.466C140.924 330.209 135.035 332.699 132.463 338.017C129.891 343.333 131.594 349.495 136.26 351.752Z" fill="#3C184E" fill-opacity="0.05"/>
<path d="M149.73 361.19L149.73 361.191C150.333 361.776 151.01 362.244 151.739 362.597C155.142 364.243 159.657 363.37 162.764 360.176C164.552 358.337 165.625 355.997 165.784 353.587C165.951 351.065 165.11 348.768 163.416 347.12C161.72 345.472 159.401 344.695 156.884 344.932C154.479 345.159 152.17 346.297 150.383 348.136C146.61 352.015 146.317 357.871 149.73 361.19Z" fill="#3C184E" fill-opacity="0.05"/>
<path d="M168.096 368.686L168.095 368.684C166.027 364.75 160.716 363.453 156.254 365.792C151.795 368.135 149.845 373.241 151.907 377.174C152.659 378.609 153.843 379.694 155.26 380.379C157.73 381.574 160.909 381.556 163.748 380.069C168.208 377.726 170.158 372.62 168.096 368.686Z" fill="#3C184E" fill-opacity="0.05"/>
</g>
<g clip-path="url(#clip6_158848_3195)">
<path d="M228.626 545.171C227.99 539.872 224.743 535.322 219.939 532.998C215.136 530.675 209.552 530.954 205.004 533.744L194.043 540.468C192.224 541.583 190.842 543.22 190.047 545.199C189.251 547.179 189.117 549.317 189.658 551.381C190.201 553.445 191.369 555.241 193.034 556.575C194.7 557.909 196.709 558.655 198.842 558.733L198.985 558.738C204.334 558.972 209.383 561.436 212.859 565.514C213.755 566.565 214.84 567.402 216.057 567.991C216.719 568.311 217.421 568.558 218.154 568.727C220.234 569.205 222.366 569.006 224.322 568.15C226.276 567.294 227.87 565.862 228.929 564.009C229.988 562.156 230.413 560.057 230.159 557.938L228.626 545.171Z" fill="#3C184E" fill-opacity="0.05"/>
<path d="M200.446 531.523C202.65 531.709 204.786 530.894 206.461 529.229C208.056 527.645 209.043 525.464 209.241 523.087C209.438 520.71 208.825 518.396 207.515 516.569C206.139 514.651 204.168 513.494 201.966 513.311C197.539 512.941 193.595 516.725 193.173 521.749C192.842 525.75 194.845 529.346 197.911 530.829C198.694 531.208 199.546 531.449 200.446 531.523Z" fill="#3C184E" fill-opacity="0.05"/>
<path d="M216.26 529.752C220.927 532.009 226.815 529.52 229.387 524.204C231.959 518.886 230.256 512.724 225.589 510.466C220.924 508.209 215.035 510.699 212.463 516.017C209.891 521.333 211.594 527.495 216.26 529.752Z" fill="#3C184E" fill-opacity="0.05"/>
<path d="M229.73 539.19L229.73 539.191C230.333 539.776 231.01 540.244 231.739 540.597C235.142 542.243 239.657 541.37 242.764 538.176C244.552 536.337 245.625 533.997 245.784 531.587C245.951 529.065 245.11 526.768 243.416 525.12C241.72 523.472 239.401 522.695 236.884 522.932C234.479 523.159 232.17 524.297 230.383 526.136C226.61 530.015 226.317 535.871 229.73 539.19Z" fill="#3C184E" fill-opacity="0.05"/>
<path d="M248.096 546.686L248.095 546.684C246.027 542.75 240.716 541.453 236.254 543.792C231.795 546.135 229.845 551.241 231.907 555.174C232.659 556.609 233.843 557.694 235.26 558.379C237.73 559.574 240.909 559.556 243.748 558.069C248.208 555.726 250.158 550.62 248.096 546.686Z" fill="#3C184E" fill-opacity="0.05"/>
</g>
<g clip-path="url(#clip7_158848_3195)">
<path d="M755.626 61.1709C754.99 55.8725 751.743 51.3217 746.939 48.9981C742.136 46.6745 736.552 46.9536 732.004 49.7441L721.043 56.4676C719.224 57.5829 717.842 59.2196 717.047 61.1992C716.251 63.1793 716.117 65.3166 716.658 67.3813C717.201 69.4452 718.369 71.2412 720.034 72.5753C721.7 73.9094 723.709 74.6553 725.842 74.7331L725.985 74.7378C731.334 74.9721 736.383 77.4364 739.859 81.5136C740.755 82.5652 741.84 83.402 743.057 83.991C743.719 84.3112 744.421 84.5582 745.154 84.727C747.234 85.2053 749.366 85.0057 751.322 84.1498C753.276 83.2939 754.87 81.8619 755.929 80.0087C756.988 78.1556 757.413 76.0566 757.159 73.9377L755.626 61.1709Z" fill="#3C184E" fill-opacity="0.05"/>
<path d="M727.446 47.5234C729.65 47.7086 731.786 46.894 733.461 45.2293C735.056 43.6455 736.043 41.4642 736.241 39.0867C736.438 36.7102 735.825 34.396 734.515 32.5695C733.139 30.6513 731.168 29.4937 728.966 29.3114C724.539 28.9409 720.595 32.725 720.173 37.7492C719.842 41.7504 721.845 45.3461 724.911 46.8292C725.694 47.2079 726.546 47.4487 727.446 47.5234Z" fill="#3C184E" fill-opacity="0.05"/>
<path d="M743.26 45.7518C747.927 48.009 753.815 45.5203 756.387 40.2039C758.959 34.8862 757.256 28.7236 752.589 26.4663C747.924 24.2093 742.035 26.6991 739.463 32.0169C736.891 37.3333 738.594 43.4947 743.26 45.7518Z" fill="#3C184E" fill-opacity="0.05"/>
</g>
<mask id="mask0_158848_3195" style="mask-type:alpha" maskUnits="userSpaceOnUse" x="64" y="0" width="851" height="658">
<path d="M76.8623 483.85C34.4124 352.467 106.507 211.547 237.891 169.097L761.252 -5.05447e-05L914.976 475.782L391.616 644.879C260.232 687.329 119.312 615.234 76.8623 483.85V483.85Z" fill="url(#paint0_linear_158848_3195)"/>
</mask>
<g mask="url(#mask0_158848_3195)">
</g>
<defs>
<linearGradient id="paint0_linear_158848_3195" x1="380.626" y1="122.98" x2="534.35" y2="598.762" gradientUnits="userSpaceOnUse">
<stop stop-color="#3CB7DE"/>
<stop offset="1" stop-color="#3FA3FF"/>
</linearGradient>
<clipPath id="clip0_158848_3195">
<rect width="64" height="64" fill="white" transform="translate(301.87 144) rotate(25.8147)"/>
</clipPath>
<clipPath id="clip1_158848_3195">
<rect width="64" height="64" fill="white" transform="translate(516.87 78) rotate(25.8147)"/>
</clipPath>
<clipPath id="clip2_158848_3195">
<rect width="64" height="64" fill="white" transform="translate(655.87 180) rotate(25.8147)"/>
</clipPath>
<clipPath id="clip3_158848_3195">
<rect width="64" height="64" fill="white" transform="translate(646.87 435) rotate(25.8147)"/>
</clipPath>
<clipPath id="clip4_158848_3195">
<rect width="64" height="64" fill="white" transform="translate(558.87 303) rotate(25.8147)"/>
</clipPath>
<clipPath id="clip5_158848_3195">
<rect width="64" height="64" fill="white" transform="translate(124.87 318) rotate(25.8147)"/>
</clipPath>
<clipPath id="clip6_158848_3195">
<rect width="64" height="64" fill="white" transform="translate(204.87 496) rotate(25.8147)"/>
</clipPath>
<clipPath id="clip7_158848_3195">
<rect width="64" height="64" fill="white" transform="translate(731.87 12) rotate(25.8147)"/>
</clipPath>
</defs>
</svg>
