<svg width="236" height="358" viewBox="0 0 236 358" fill="none" xmlns="http://www.w3.org/2000/svg">
<g clip-path="url(#clip0_91902_843)">
<path d="M143.18 113.976C142.782 110.658 140.748 107.808 137.74 106.352C134.732 104.897 131.235 105.072 128.387 106.82L121.522 111.03C120.383 111.729 119.518 112.754 119.02 113.994C118.521 115.234 118.437 116.572 118.776 117.865C119.116 119.158 119.847 120.282 120.891 121.118C121.934 121.953 123.192 122.421 124.528 122.469L124.617 122.472C127.967 122.619 131.129 124.162 133.306 126.716C133.867 127.374 134.546 127.898 135.309 128.267C135.723 128.468 136.163 128.622 136.622 128.728C137.924 129.028 139.26 128.903 140.485 128.367C141.709 127.831 142.707 126.934 143.37 125.773C144.033 124.613 144.299 123.298 144.14 121.971L143.18 113.976Z" fill="#3C184E" fill-opacity="0.05"/>
<path d="M125.532 105.429C126.912 105.545 128.25 105.035 129.299 103.992C130.298 103 130.916 101.634 131.04 100.145C131.164 98.657 130.78 97.2076 129.959 96.0638C129.098 94.8625 127.863 94.1376 126.484 94.0234C123.712 93.7913 121.242 96.1612 120.978 99.3076C120.77 101.813 122.024 104.065 123.944 104.994C124.435 105.231 124.968 105.382 125.532 105.429Z" fill="#3C184E" fill-opacity="0.05"/>
<path d="M135.436 104.319C138.359 105.733 142.046 104.174 143.657 100.845C145.268 97.5147 144.201 93.6553 141.279 92.2416C138.357 90.8281 134.669 92.3874 133.058 95.7177C131.447 99.0472 132.514 102.906 135.436 104.319Z" fill="#3C184E" fill-opacity="0.05"/>
<path d="M143.872 110.23L143.872 110.231C144.249 110.597 144.673 110.89 145.13 111.111C147.261 112.142 150.088 111.596 152.034 109.595C153.154 108.444 153.826 106.978 153.926 105.469C154.03 103.889 153.504 102.451 152.442 101.419C151.381 100.386 149.928 99.9001 148.352 100.049C146.846 100.19 145.4 100.903 144.28 102.055C141.918 104.484 141.735 108.152 143.872 110.23Z" fill="#3C184E" fill-opacity="0.05"/>
<path d="M155.373 114.925L155.373 114.924C154.078 112.46 150.752 111.647 147.958 113.112C145.165 114.579 143.944 117.777 145.235 120.24C145.706 121.139 146.447 121.818 147.335 122.248C148.882 122.996 150.873 122.985 152.651 122.054C155.444 120.586 156.665 117.389 155.373 114.925Z" fill="#3C184E" fill-opacity="0.05"/>
</g>
<g clip-path="url(#clip1_91902_843)">
<path d="M32.3319 222.945C31.9336 219.627 29.9 216.777 26.8918 215.322C23.8836 213.867 20.3868 214.042 17.5383 215.789L10.6738 220C9.53491 220.698 8.66947 221.723 8.17133 222.963C7.67305 224.203 7.5891 225.542 7.92799 226.835C8.26782 228.127 8.99893 229.252 10.0422 230.088C11.0854 230.923 12.3432 231.39 13.6791 231.439L13.7687 231.442C17.1184 231.589 20.2807 233.132 22.4574 235.685C23.019 236.344 23.6979 236.868 24.4604 237.237C24.875 237.437 25.3148 237.592 25.7736 237.698C27.0761 237.997 28.4117 237.872 29.6364 237.336C30.8604 236.8 31.8582 235.903 32.5215 234.743C33.1848 233.582 33.4511 232.268 33.292 230.941L32.3319 222.945Z" fill="#3C184E" fill-opacity="0.05"/>
<path d="M14.6838 214.399C16.0639 214.514 17.4018 214.004 18.4509 212.962C19.4495 211.97 20.0678 210.604 20.1919 209.115C20.3153 207.627 19.9315 206.177 19.1111 205.033C18.2492 203.832 17.0145 203.107 15.6359 202.993C12.8635 202.761 10.3934 205.131 10.1292 208.277C9.92182 210.783 11.1761 213.035 13.0961 213.964C13.5864 214.201 14.1201 214.352 14.6838 214.399Z" fill="#3C184E" fill-opacity="0.05"/>
<path d="M24.5879 213.289C27.5102 214.703 31.1981 213.144 32.8087 209.815C34.4197 206.484 33.3527 202.625 30.4303 201.211C27.5083 199.798 23.8204 201.357 22.2094 204.687C20.5988 208.017 21.6658 211.876 24.5879 213.289Z" fill="#3C184E" fill-opacity="0.05"/>
<path d="M33.0231 219.2L33.0234 219.2C33.4007 219.567 33.8249 219.86 34.2816 220.081C36.4127 221.112 39.2401 220.565 41.1858 218.565C42.306 217.413 42.9779 215.948 43.0775 214.439C43.1821 212.859 42.6553 211.42 41.594 210.388C40.5324 209.356 39.0798 208.87 37.5034 209.018C35.9976 209.16 34.5516 209.873 33.4319 211.024C31.0695 213.454 30.8861 217.122 33.0231 219.2Z" fill="#3C184E" fill-opacity="0.05"/>
<path d="M44.5251 223.894L44.5247 223.893C43.2295 221.43 39.9034 220.617 37.1093 222.082C34.3163 223.549 33.0952 226.747 34.3868 229.21C34.8577 230.109 35.5991 230.788 36.4866 231.217C38.0333 231.966 40.0245 231.955 41.8026 231.023C44.5953 229.556 45.8167 226.358 44.5251 223.894Z" fill="#3C184E" fill-opacity="0.05"/>
</g>
<g clip-path="url(#clip2_91902_843)">
<path d="M82.4329 334.42C82.0345 331.102 80.001 328.252 76.9927 326.797C73.9845 325.342 70.4878 325.516 67.6393 327.264L60.7747 331.475C59.6359 332.173 58.7704 333.198 58.2723 334.438C57.774 335.678 57.6901 337.017 58.0289 338.31C58.3688 339.602 59.0999 340.727 60.1431 341.562C61.1864 342.398 62.4442 342.865 63.7801 342.914L63.8697 342.917C67.2194 343.063 70.3817 344.607 72.5584 347.16C73.1199 347.819 73.7989 348.343 74.5614 348.712C74.976 348.912 75.4158 349.067 75.8745 349.173C77.177 349.472 78.5127 349.347 79.7374 348.811C80.9614 348.275 81.9591 347.378 82.6224 346.218C83.2857 345.057 83.552 343.743 83.393 342.416L82.4329 334.42Z" fill="#3C184E" fill-opacity="0.05"/>
<path d="M64.7847 325.873C66.1648 325.989 67.5027 325.479 68.5519 324.437C69.5504 323.445 70.1688 322.079 70.2929 320.59C70.4163 319.101 70.0324 317.652 69.212 316.508C68.3501 315.307 67.1155 314.582 65.7369 314.468C62.9644 314.236 60.4943 316.606 60.2301 319.752C60.0228 322.258 61.277 324.51 63.1971 325.439C63.6873 325.676 64.221 325.827 64.7847 325.873Z" fill="#3C184E" fill-opacity="0.05"/>
<path d="M74.6887 324.764C77.6111 326.177 81.2989 324.619 82.9095 321.289C84.5205 317.959 83.4535 314.1 80.5312 312.686C77.6091 311.273 73.9212 312.832 72.3103 316.162C70.6997 319.492 71.7667 323.35 74.6887 324.764Z" fill="#3C184E" fill-opacity="0.05"/>
<path d="M83.1241 330.675L83.1243 330.675C83.5017 331.042 83.9258 331.335 84.3825 331.556C86.5137 332.587 89.341 332.04 91.2867 330.04C92.4069 328.888 93.0788 327.423 93.1784 325.913C93.283 324.334 92.7562 322.895 91.695 321.863C90.6334 320.831 89.1807 320.345 87.6044 320.493C86.0985 320.635 84.6525 321.348 83.5329 322.499C81.1705 324.929 80.9871 328.596 83.1241 330.675Z" fill="#3C184E" fill-opacity="0.05"/>
<path d="M94.6259 335.369L94.6255 335.368C93.3303 332.904 90.0042 332.092 87.2101 333.557C84.4171 335.024 83.196 338.222 84.4876 340.685C84.9585 341.584 85.6999 342.263 86.5874 342.692C88.1342 343.44 90.1253 343.429 91.9034 342.498C94.6961 341.031 95.9175 337.833 94.6259 335.369Z" fill="#3C184E" fill-opacity="0.05"/>
</g>
<defs>
<clipPath id="clip0_91902_843">
<rect width="40.0808" height="40.0808" fill="white" transform="translate(128.302 83.1819) rotate(25.8147)"/>
</clipPath>
<clipPath id="clip1_91902_843">
<rect width="40.0808" height="40.0808" fill="white" transform="translate(17.454 192.152) rotate(25.8147)"/>
</clipPath>
<clipPath id="clip2_91902_843">
<rect width="40.0808" height="40.0808" fill="white" transform="translate(67.5549 303.626) rotate(25.8147)"/>
</clipPath>
</defs>
</svg>
